<svg height="495.06839" viewBox="0 0 473.61184 495.06839" width="473.61185" xmlns="http://www.w3.org/2000/svg" xmlns:xlink="http://www.w3.org/1999/xlink"><clipPath id="a"><path d="m454.93 194.1573 114.2783 192.2031 114.2783-192.2031z"/></clipPath><linearGradient id="b" gradientTransform="matrix(.00011 0 0 -.00011 454.93 386.3604)" gradientUnits="userSpaceOnUse" x1="996950" x2="996950" y1="0" y2="1676400"><stop offset="0" stop-color="#e7f8fd"/><stop offset="1" stop-color="#a9e6f4"/></linearGradient><linearGradient id="c" gradientTransform="matrix(.00011 0 0 -.00011 454.93 386.3604)" gradientUnits="userSpaceOnUse" x1="996950" x2="996950" y1="1676400" y2="3352800"><stop offset="0" stop-color="#a9e6f4"/><stop offset="1" stop-color="#e7f8fd"/></linearGradient><clipPath id="d"><path d="m390.1481 111.8886h355.2089v371.3013h-355.2089z"/></clipPath><clipPath id="e"><path d="m411.2568 211.8728c0 3.887 3.1503 7.0379 7.0364 7.0379h96.5661c3.886 0 7.0364-3.1509 7.0364-7.0379v-28.1506c0-3.8869-3.1504-7.0379-7.0364-7.0379h-96.5661c-3.8861 0-7.0364 3.151-7.0364 7.0379z"/></clipPath><linearGradient id="f"><stop offset="0" stop-color="#ffd088"/><stop offset="1" stop-color="#fff1dd"/></linearGradient><linearGradient id="g" gradientTransform="matrix(.00011 0 0 -.00011 411.2568 218.9107)" gradientUnits="userSpaceOnUse" x1="482600" x2="482600" xlink:href="#f" y1="-368300" y2="0"/><linearGradient id="h"><stop offset="0" stop-color="#fff1dd"/><stop offset="1" stop-color="#ffd088"/></linearGradient><linearGradient id="i" gradientTransform="matrix(.00011 0 0 -.00011 411.2568 218.9107)" gradientUnits="userSpaceOnUse" x1="482600" x2="482600" xlink:href="#h" y1="0" y2="368300"/><linearGradient id="j" gradientTransform="matrix(.00011 0 0 -.00011 411.2568 218.9107)" gradientUnits="userSpaceOnUse" x1="482600" x2="482600" xlink:href="#f" y1="368300" y2="736600"/><clipPath id="k"><path d="m390.1481 111.8886h355.2089v371.3013h-355.2089z"/></clipPath><clipPath id="l"><path d="m510.2495 392.1846c0 4.0209 3.2589 7.2805 7.279 7.2805h96.0808c4.0201 0 7.279-3.2596 7.279-7.2805v-29.1214c0-4.021-3.2589-7.2806-7.279-7.2806h-96.0808c-4.0201 0-7.279 3.2596-7.279 7.2806z"/></clipPath><linearGradient id="m" gradientTransform="matrix(.00011 0 0 -.00011 510.2495 399.4651)" gradientUnits="userSpaceOnUse" x1="482600" x2="482600" xlink:href="#h" y1="0" y2="381000"/><linearGradient id="n" gradientTransform="matrix(.00011 0 0 -.00011 510.2495 399.4651)" gradientUnits="userSpaceOnUse" x1="482600" x2="482600" xlink:href="#f" y1="381000" y2="762000"/><clipPath id="o"><path d="m390.1481 111.8886h355.2089v371.3013h-355.2089z"/></clipPath><clipPath id="p"><path d="m615.0652 211.8729c0 3.8869 3.1503 7.0378 7.0364 7.0378h98.0219c3.886 0 7.0363-3.1509 7.0363-7.0378v-28.1508c0-3.8869-3.1503-7.0378-7.0363-7.0378h-98.0219c-3.8861 0-7.0364 3.1509-7.0364 7.0378z"/></clipPath><linearGradient id="q" gradientTransform="matrix(.00011 0 0 -.00011 615.0652 218.9107)" gradientUnits="userSpaceOnUse" x1="488950" x2="488950" xlink:href="#f" y1="-368300" y2="0"/><linearGradient id="r" gradientTransform="matrix(.00011 0 0 -.00011 615.0652 218.9107)" gradientUnits="userSpaceOnUse" x1="488950" x2="488950" xlink:href="#h" y1="0" y2="368300"/><clipPath id="s"><path d="m390.1481 111.8886h355.2089v371.3013h-355.2089z"/></clipPath><clipPath id="t"><path d="m516.0726 280.0661c0 4.021 3.2589 7.2806 7.279 7.2806h97.5366c4.0201 0 7.279-3.2596 7.279-7.2806v-29.1213c0-4.021-3.2589-7.2806-7.279-7.2806h-97.5366c-4.0201 0-7.279 3.2596-7.279 7.2806z"/></clipPath><linearGradient id="u"><stop offset="0" stop-color="#f3efee"/><stop offset="1" stop-color="#d2c5c1"/></linearGradient><linearGradient id="v" gradientTransform="matrix(.00011 0 0 -.00011 516.0726 287.3467)" gradientUnits="userSpaceOnUse" x1="488950" x2="488950" xlink:href="#u" y1="0" y2="381000"/><linearGradient id="w"><stop offset="0" stop-color="#d2c5c1"/><stop offset="1" stop-color="#f3efee"/></linearGradient><linearGradient id="x" gradientTransform="matrix(.00011 0 0 -.00011 516.0726 287.3467)" gradientUnits="userSpaceOnUse" x1="488950" x2="488950" xlink:href="#w" y1="381000" y2="762000"/><clipPath id="y"><path d="m390.1481 111.8886h355.2089v371.3013h-355.2089z"/></clipPath><clipPath id="z"><path d="m436.005 182.2658c0 3.3508 2.7158 6.0672 6.0659 6.0672h98.507c3.3502 0 6.0659-2.7164 6.0659-6.0672v-24.2677c0-3.3508-2.7157-6.0672-6.0659-6.0672h-98.507c-3.3501 0-6.0659 2.7164-6.0659 6.0672z"/></clipPath><linearGradient id="A" gradientTransform="matrix(.00011 0 0 -.00011 436.005 188.333)" gradientUnits="userSpaceOnUse" x1="482600" x2="482600" xlink:href="#u" y1="0" y2="317500"/><linearGradient id="B" gradientTransform="matrix(.00011 0 0 -.00011 436.005 188.333)" gradientUnits="userSpaceOnUse" x1="482600" x2="482600" xlink:href="#w" y1="317500" y2="635000"/><clipPath id="C"><path d="m390.1481 111.8886h355.2089v371.3013h-355.2089z"/></clipPath><clipPath id="D"><path d="m504.4264 472.2692c0 4.0209 3.2589 7.2805 7.279 7.2805h96.0808c4.0201 0 7.279-3.2596 7.279-7.2805v-29.1214c0-4.021-3.2589-7.2806-7.279-7.2806h-96.0808c-4.0201 0-7.279 3.2596-7.279 7.2806z"/></clipPath><linearGradient id="E" gradientTransform="matrix(.00011 0 0 -.00011 504.4264 479.5497)" gradientUnits="userSpaceOnUse" x1="482600" x2="482600" xlink:href="#u" y1="0" y2="381000"/><linearGradient id="F" gradientTransform="matrix(.00011 0 0 -.00011 504.4264 479.5497)" gradientUnits="userSpaceOnUse" x1="482600" x2="482600" xlink:href="#w" y1="381000" y2="762000"/><clipPath id="G"><path d="m390.1481 111.8886h355.2089v371.3013h-355.2089z"/></clipPath><g clip-path="url(#a)" transform="matrix(1.33333 0 0 -1.33333 -520.19745 644.25318)"><path d="m390.1481 111.8886h355.2089v371.3013h-355.2089z" fill="url(#b)"/><path d="m390.1481 111.8886h355.2089v371.3013h-355.2089z" fill="url(#c)"/></g><g clip-path="url(#d)" transform="matrix(1.33333 0 0 -1.33333 -520.19745 644.25318)"><path d="m0 1676400 996950-1676400 996950 1676400z" fill="none" stroke="#4c9eab" stroke-linejoin="round" stroke-miterlimit="10" stroke-width="12700" transform="matrix(.00011 0 0 -.00011 454.93 386.3604)"/></g><g clip-path="url(#e)" transform="matrix(1.33333 0 0 -1.33333 -520.19745 644.25318)"><path d="m390.1481 111.8886h355.2089v371.3013h-355.2089z" fill="url(#g)"/><path d="m390.1481 111.8886h355.2089v371.3013h-355.2089z" fill="url(#i)"/><path d="m390.1481 111.8886h355.2089v371.3013h-355.2089z" fill="url(#j)"/></g><g clip-path="url(#k)" transform="matrix(1.33333 0 0 -1.33333 -520.19745 644.25318)"><path d="m0 61384.92c0-33901.96 27482.9-61384.92 61384.78-61384.92h842430.42c33901.90000000003 0 61384.80000000005 27482.96 61384.80000000005 61384.92v245530.18c0 33901.90000000003-27482.90000000003 61384.90000000002-61384.80000000005 61384.90000000002h-842430.42c-33901.88 0-61384.78-27483-61384.78-61384.90000000002z" fill="none" stroke="#de9500" stroke-linejoin="round" stroke-miterlimit="10" stroke-width="12700" transform="matrix(.00011 0 0 -.00011 411.2568 218.9107)"/><text font-family="Arial" font-size="18" transform="matrix(1.45577 0 0 -1.45608 438.9734 187.60502)"><tspan x="0 12.9996 23.000401 32.000401" y="0">Cost</tspan></text></g><g clip-path="url(#l)" transform="matrix(1.33333 0 0 -1.33333 -520.19745 644.25318)"><path d="m390.1481 111.8886h355.2089v371.3013h-355.2089z" fill="url(#m)"/><path d="m390.1481 111.8886h355.2089v371.3013h-355.2089z" fill="url(#n)"/></g><g clip-path="url(#o)" transform="matrix(1.33333 0 0 -1.33333 -520.19745 644.25318)"><path d="m0 63501.23c0-35070.76 28430.44-63501.23 63501.17-63501.23h838197.73c35070.69999999996 0 63501.09999999998 28430.47 63501.09999999998 63501.23v253997.56999999995c0 35070.70000000001-28430.40000000003 63501.20000000001-63501.09999999998 63501.20000000001h-838197.73c-35070.73 0-63501.17-28430.5-63501.17-63501.20000000001z" fill="none" stroke="#de9500" stroke-linejoin="round" stroke-miterlimit="10" stroke-width="12700" transform="matrix(.00011 0 0 -.00011 510.2495 399.4651)"/><text font-family="Arial" font-size="18" transform="matrix(1.45577 0 0 -1.45608 527.8325 368.159389)"><tspan x="0 12.0006 21.000601 31.0014 41.002201" y="0">Scope</tspan></text></g><g clip-path="url(#p)" transform="matrix(1.33333 0 0 -1.33333 -520.19745 644.25318)"><path d="m390.1481 111.8886h355.2089v371.3013h-355.2089z" fill="url(#q)"/><path d="m390.1481 111.8886h355.2089v371.3013h-355.2089z" fill="url(#r)"/></g><g clip-path="url(#s)" transform="matrix(1.33333 0 0 -1.33333 -520.19745 644.25318)"><path d="m0 61384.05c0-33901.48000000001 27482.54-61384.05 61383.97-61384.05h855132.03c33901.5 0 61384 27482.57 61384 61384.05v245531.95c0 33901.40000000003-27482.5 61384-61384 61384h-855132.03c-33901.43 0-61383.97-27482.59999999998-61383.97-61384z" fill="none" stroke="#de9500" stroke-linejoin="round" stroke-miterlimit="10" stroke-width="12700" transform="matrix(.00011 0 0 -.00011 615.0652 218.9107)"/><text font-family="Arial" font-size="18" transform="matrix(1.45577 0 0 -1.45608 641.567 187.60502)"><tspan x="0 10.3302 14.3244 29.316601" y="0">Time</tspan></text></g><g clip-path="url(#t)" transform="matrix(1.33333 0 0 -1.33333 -520.19745 644.25318)"><path d="m390.1481 111.8886h355.2089v371.3013h-355.2089z" fill="url(#v)"/><path d="m390.1481 111.8886h355.2089v371.3013h-355.2089z" fill="url(#x)"/></g><g clip-path="url(#y)" transform="matrix(1.33333 0 0 -1.33333 -520.19745 644.25318)"><path d="m0 63501.61c0-35070.97 28430.58-63501.61 63501.47-63501.61h850897.03c35070.90000000003 0 63501.5 28430.64 63501.5 63501.61v253996.79000000004c0 35071-28430.59999999998 63501.59999999998-63501.5 63501.59999999998h-850897.03c-35070.89 0-63501.47-28430.59999999998-63501.47-63501.59999999998z" fill="none" stroke="#7d6b65" stroke-linejoin="round" stroke-miterlimit="10" stroke-width="12700" transform="matrix(.00011 0 0 -.00011 516.0726 287.3467)"/><text font-family="Arial" font-size="14" transform="matrix(1.45577 0 0 -1.45608 539.4823 258.95312)"><tspan x="0 10.8752 18.628401 26.381599 29.500799 32.619999 36.495201" y="0">Quality</tspan></text></g><g clip-path="url(#z)" transform="matrix(1.33333 0 0 -1.33333 -520.19745 644.25318)"><path d="m390.1481 111.8886h355.2089v371.3013h-355.2089z" fill="url(#A)"/><path d="m390.1481 111.8886h355.2089v371.3013h-355.2089z" fill="url(#B)"/></g><g clip-path="url(#C)" transform="matrix(1.33333 0 0 -1.33333 -520.19745 644.25318)"><path d="m0 52918.25c0-29225.94 23692.27-52918.25 52918.17-52918.25h859363.73c29225.79999999993 0 52918.09999999998 23692.31 52918.09999999998 52918.25v211663.55c0 29225.90000000003-23692.30000000005 52918.20000000001-52918.09999999998 52918.20000000001h-859363.73c-29225.9 0-52918.17-23692.29999999999-52918.17-52918.20000000001z" fill="none" stroke="#7d6b65" stroke-linejoin="round" stroke-miterlimit="10" stroke-width="12700" transform="matrix(.00011 0 0 -.00011 436.005 188.333)"/><text font-family="Arial" font-size="12" transform="matrix(1.45577 0 0 -1.45608 453.4543 164.30762)"><tspan x="0 8.6244 15.2496 21.249599 27.8748 34.5 38.499599 44.499599" y="0">Resource</tspan></text><path d="m0 486843.6c0-268876.3 217967.3-486843.6 486843.5-486843.6h1998112.5c268877 0 486844 217967.3 486844 486843.6v1947312.4c0 268877-217967 486844-486844 486844h-1998112.5c-268876.2 0-486843.5-217967-486843.5-486844z" style="fill:none;stroke:#7d6b65;stroke-width:25400;stroke-linejoin:round;stroke-miterlimit:10;stroke-dasharray:25400 25400" transform="matrix(.00011 0 0 -.00011 397.427 455.5243)"/></g><g clip-path="url(#D)" transform="matrix(1.33333 0 0 -1.33333 -520.19745 644.25318)"><path d="m390.1481 111.8886h355.2089v371.3013h-355.2089z" fill="url(#E)"/><path d="m390.1481 111.8886h355.2089v371.3013h-355.2089z" fill="url(#F)"/></g><g clip-path="url(#G)" transform="matrix(1.33333 0 0 -1.33333 -520.19745 644.25318)"><path d="m0 63501.23c0-35070.76 28430.44-63501.23 63501.17-63501.23h838197.73c35070.69999999996 0 63501.09999999998 28430.47 63501.09999999998 63501.23v253997.56999999995c0 35070.70000000001-28430.40000000003 63501.20000000001-63501.09999999998 63501.20000000001h-838197.73c-35070.73 0-63501.17-28430.5-63501.17-63501.20000000001z" fill="none" stroke="#7d6b65" stroke-linejoin="round" stroke-miterlimit="10" stroke-width="12700" transform="matrix(.00011 0 0 -.00011 504.4264 479.5497)"/><text font-family="Arial" font-size="14" transform="matrix(1.45577 0 0 -1.45608 538.9291 451.15616)"><tspan x="0 10.1248 13.2496 20.249599" y="0">Risk</tspan></text></g></svg>