<svg height="633.59998" viewBox="0 0 934.23999 633.59998" width="934.23999" xml:space="preserve" xmlns="http://www.w3.org/2000/svg" xmlns:xlink="http://www.w3.org/1999/xlink"><clipPath id="a"><path clip-rule="evenodd" d="m.00001431 0h959.99999569v540h-959.99999569z"/></clipPath><clipPath id="b"><path clip-rule="evenodd" d="m.00001431 0h959.99999569v540h-959.99999569z"/></clipPath><clipPath id="c"><path clip-rule="evenodd" d="m.00001431 0h959.99999569v540h-959.99999569z"/></clipPath><clipPath id="d"><path clip-rule="evenodd" d="m.00001431 0h959.99999569v540h-959.99999569z"/></clipPath><clipPath id="e"><path clip-rule="evenodd" d="m.00001431 0h959.99999569v540h-959.99999569z"/></clipPath><clipPath id="f"><path clip-rule="evenodd" d="m.00001431 0h959.99999569v540h-959.99999569z"/></clipPath><clipPath id="g"><path clip-rule="evenodd" d="m.00001431 0h959.99999569v540h-959.99999569z"/></clipPath><clipPath id="h"><path clip-rule="evenodd" d="m.00001431 0h959.99999569v540h-959.99999569z"/></clipPath><clipPath id="i"><path clip-rule="evenodd" d="m.00001431 0h959.99999569v540h-959.99999569z"/></clipPath><clipPath id="j"><path clip-rule="evenodd" d="m.00001431 0h959.99999569v540h-959.99999569z"/></clipPath><clipPath id="k"><path clip-rule="evenodd" d="m.00001431 0h959.99999569v540h-959.99999569z"/></clipPath><clipPath id="l"><path clip-rule="evenodd" d="m.00001431 0h959.99999569v540h-959.99999569z"/></clipPath><clipPath id="m"><path clip-rule="evenodd" d="m.00001431 0h959.99999569v540h-959.99999569z"/></clipPath><clipPath id="n"><path clip-rule="evenodd" d="m.00001431 0h959.99999569v540h-959.99999569z"/></clipPath><clipPath id="o"><path clip-rule="evenodd" d="m.00001431 0h959.99999569v540h-959.99999569z"/></clipPath><clipPath id="p"><path clip-rule="evenodd" d="m.00001431 0h959.99999569v540h-959.99999569z"/></clipPath><clipPath id="q"><path clip-rule="evenodd" d="m.00001431 0h959.99999569v540h-959.99999569z"/></clipPath><clipPath id="r"><path clip-rule="evenodd" d="m.00001431 0h959.99999569v540h-959.99999569z"/></clipPath><clipPath id="s"><path clip-rule="evenodd" d="m.00001431 0h959.99999569v540h-959.99999569z"/></clipPath><clipPath id="t"><path clip-rule="evenodd" d="m.00001431 0h959.99999569v540h-959.99999569z"/></clipPath><clipPath id="u"><path clip-rule="evenodd" d="m.00001431 0h959.99999569v540h-959.99999569z"/></clipPath><clipPath id="v"><path clip-rule="evenodd" d="m.00001431 0h959.99999569v540h-959.99999569z"/></clipPath><clipPath id="w"><path clip-rule="evenodd" d="m.00001431 0h959.99999569v540h-959.99999569z"/></clipPath><clipPath id="x"><path clip-rule="evenodd" d="m.00001431 0h959.99999569v540h-959.99999569z"/></clipPath><clipPath id="y"><path clip-rule="evenodd" d="m.00001431 0h959.99999569v540h-959.99999569z"/></clipPath><clipPath id="z"><path clip-rule="evenodd" d="m.00001431 0h959.99999569v540h-959.99999569z"/></clipPath><clipPath id="A"><path clip-rule="evenodd" d="m.00001431 0h959.99999569v540h-959.99999569z"/></clipPath><clipPath id="B"><path clip-rule="evenodd" d="m.00001431 0h959.99999569v540h-959.99999569z"/></clipPath><clipPath id="C"><path clip-rule="evenodd" d="m.00001431 0h959.99999569v540h-959.99999569z"/></clipPath><clipPath id="D"><path clip-rule="evenodd" d="m.00001431 0h959.99999569v540h-959.99999569z"/></clipPath><clipPath id="E"><path clip-rule="evenodd" d="m.00001431 0h959.99999569v540h-959.99999569z"/></clipPath><g transform="matrix(1.3333333 0 0 -1.3333333 -222.07999 672.47865)"><path d="m326.94 476.22c0 11.93 9.67 21.6 21.6 21.6h317.76c11.93 0 21.6-9.67 21.6-21.6v-412.557c0-11.931-9.67-21.603-21.6-21.603h-317.76c-11.93 0-21.6 9.672-21.6 21.603z" fill="#00aad4" stroke="#005192" stroke-miterlimit="10" stroke-width="2"/><g fill="#005192" fill-rule="evenodd"><path d="m360.24 455.64h247.44v42.24h-247.44z"/><path d="m348.32 497.78c-14.9-.73-22.1-9.2-22.26-21.09-.01-3.74-.01-7.47-.02-11.21h35.04v32.4c-4.25-.03-8.51-.06-12.76-.1z"/><path d="m326.04 455.64h44.04v18h-44.04z"/><path d="m616 455.74c14.9.73 22.1 9.2 22.26 21.1.01 3.73.01 7.46.02 11.2-11.68 0-23.36 0-35.04 0 0-10.8 0-21.6 0-32.4 4.25.03 8.51.06 12.76.1z"/><path d="m594.24 479.88h44.04v18h-44.04z"/></g><g clip-path="url(#a)"><text fill="#fff" font-family="Arial" font-size="18" transform="matrix(1 0 0 -1 341.4 465.72)"><tspan x="0 12.006 21.959999 27.954 31.950001 41.886002 46.889999 51.948002 61.956001 65.862 75.870003 85.788002 95.795998 99.702003 109.71 119.628 125.01 140.004 150.01199 159.92999 164.93401 168.92999 178.938" y="0">Sprint planning meeting</tspan></text></g><path d="m344.94 419.57c0 11.93 9.68 21.61 21.61 21.61h287.14c11.93 0 21.61-9.68 21.61-21.61v-89.14c0-11.93-9.68-21.61-21.61-21.61h-287.14c-11.93 0-21.61 9.68-21.61 21.61z" fill="#33906a" stroke="#10612b" stroke-miterlimit="10" stroke-width="2"/><g fill="#10612b" fill-rule="evenodd"><path d="m379.08 408.84h161.16v32.4h-161.16z"/><path d="m544 408.94c14.9.73 22.1 9.2 22.26 21.1.01 3.73.01 7.47.02 11.2-11.68 0-23.36 0-35.04 0 0-10.8 0-21.6 0-32.4 4.25.03 8.51.06 12.76.1z"/><path d="m367.24 441.14c-14.96-.72-22.18-9.2-22.34-21.09-.01-3.74-.01-7.47-.02-11.21h35.16v32.4c-4.27-.03-8.54-.06-12.8-.1z"/></g><g clip-path="url(#b)"><text fill="#fff" font-family="Arial" font-size="21.6" transform="matrix(1 0 0 -1 360.29 416.57)"><tspan x="0 14.4072 26.4168 33.6096 38.4048 50.414398 56.419201 62.424 74.433601 81.626404 86.4216 98.431198 105.624 110.4192 116.424 121.2192 132.0192 144.02879 150.0336 154.8288 166.83839" y="0">Sprint prioritization</tspan></text></g><g clip-path="url(#c)"><text fill="#fff" font-family="Arial" font-size="24.96" transform="matrix(1 0 0 -1 353.09 381.05)"><tspan x="0" y="0">•</tspan></text></g><g clip-path="url(#d)"><text fill="#fff" font-family="Arial" font-size="20.04" transform="matrix(1 0 0 -1 369.29 381.05)"><tspan x="0 13.36668 24.508921 35.651161 40.10004 50.039879 60.059879 71.262238 76.833359 87.975601 99.117844 110.26008 115.67088 126.81312 136.83311 147.97536 152.42424 163.56648 174.70872 180.27985 191.42207 196.7928 207.93504 214.64844 225.79068 236.93292 248.07516 258.19537 263.76648" y="0">Analyze and evaluate product </tspan></text></g><g clip-path="url(#e)"><text fill="#fff" font-family="Arial" font-size="20.064" transform="matrix(1 0 0 -1 369.29 355.97)"><tspan x="0 11.155584 22.311169 32.343166 42.455425 46.909634 58.065216" y="0">backlog</tspan></text></g><g clip-path="url(#f)"><text fill="#fff" font-family="Arial" font-size="24.96" transform="matrix(1 0 0 -1 353.09 330.98)"><tspan x="0" y="0">•</tspan></text></g><g clip-path="url(#g)"><text fill="#fff" font-family="Arial" font-size="20.04" transform="matrix(1 0 0 -1 369.29 330.98)"><tspan x="0 13.36668 24.508921 28.9578 40.10004 50.120041 55.691158 61.081921 71.101921 82.304283 88.9776 93.426483 104.56872 110.13984 115.4304 126.57264 137.71487 148.85712" y="0">Select sprint goal</tspan></text></g><path d="m344.94 271.94c0 13.41 10.87 24.28 24.28 24.28h281.8c13.41 0 24.28-10.87 24.28-24.28v-185.085c0-13.407-10.87-24.275-24.28-24.275h-281.8c-13.41 0-24.28 10.868-24.28 24.275z" fill="#33906a" stroke="#10612b" stroke-miterlimit="10" stroke-width="2"/><path d="m379.08 259.92h161.16v36.36h-161.16z" fill="#10612b" fill-rule="evenodd"/><path d="m544 260.03c14.9.82 22.1 10.33 22.26 23.68.01 4.19.01 8.38.02 12.57-11.68 0-23.36 0-35.04 0 0-12.12 0-24.24 0-36.36 4.25.04 8.51.07 12.76.11z" fill="#10612b" fill-rule="evenodd"/><path d="m367.24 296.17c-14.96-.82-22.18-10.33-22.34-23.68-.01-4.19-.01-8.38-.02-12.57h35.16v36.36c-4.27-.04-8.54-.07-12.8-.11z" fill="#10612b" fill-rule="evenodd"/><g clip-path="url(#h)"><text fill="#fff" font-family="Arial" font-size="21.6" transform="matrix(1 0 0 -1 360.29 271.63)"><tspan x="0 14.4072 26.4168 33.6096 38.4048 50.414398 56.419201 62.424 74.433601 79.228798 91.238403 103.248 115.2576 120.0528 132.06239" y="0">Sprint planning</tspan></text></g><g clip-path="url(#i)"><text fill="#fff" font-family="Arial" font-size="24.984" transform="matrix(1 0 0 -1 353.09 231.43)"><tspan x="0" y="0">•</tspan></text></g><g clip-path="url(#j)"><text fill="#fff" font-family="Arial" font-size="20.064" transform="matrix(1 0 0 -1 369.29 231.43)"><tspan x="0 14.486208 25.641792 35.733986 40.18819 51.343777 62.499359 67.896576 79.052162 90.207741 104.69395 110.13129 115.70909 126.86467 132.20169 143.35728 153.38928 164.54486 168.99907 180.15466 190.18666 201.34224 206.71939 216.75139 227.90698 234.66855 239.12276 250.27834 255.79593" y="0">Decide how to achieve sprint </tspan></text></g><g clip-path="url(#k)"><text fill="#fff" font-family="Arial" font-size="20.04" transform="matrix(1 0 0 -1 369.29 206.33)"><tspan x="0 11.14224 22.284479 33.42672 37.875599 43.326481 49.999802 61.182121 72.324364 82.40448 86.853363 97.995598 109.13784" y="0">goal (design)</tspan></text></g><g clip-path="url(#l)"><text fill="#fff" font-family="Arial" font-size="24.96" transform="matrix(1 0 0 -1 353.09 181.37)"><tspan x="0" y="0">•</tspan></text></g><g clip-path="url(#m)"><text fill="#fff" font-family="Arial" font-size="20.04" transform="matrix(1 0 0 -1 369.29 181.37)"><tspan x="0 14.46888 21.222361 32.364601 43.50684 49.077961 60.2202 65.510757 75.530762 86.733124 93.406441 97.855324 108.99756 114.56868 119.85924 131.00148 142.14372 152.24388 162.26389 166.71275 177.89508 189.03732 194.32788 201.00121 206.57233 217.71455 227.79468 237.81468 247.93488 254.52805" y="0">Create sprint backlog (tasks) </tspan></text></g><g clip-path="url(#n)"><text fill="#fff" font-family="Arial" font-size="20.04" transform="matrix(1 0 0 -1 369.29 156.41)"><tspan x="0 5.57112 12.24444 23.386681 40.080002 45.350521 56.49276 63.206161 74.348396 85.490639 96.632881 106.75308 112.3242 117.4344 128.57664 139.71889 149.81905 159.83904 164.28792 175.47025 186.61247 191.90305 196.35191 201.92303 213.06528 229.75861 239.77859" y="0">from product backlog items </tspan></text></g><g clip-path="url(#o)"><text fill="#fff" font-family="Arial" font-size="20.064" transform="matrix(1 0 0 -1 369.29 131.33)"><tspan x="0 6.681312 17.836897 27.949152 39.104736 45.786049 50.982624 61.014626 66.592415 77.748001 84.429314 88.883522 100.0391 110.13129 115.28774 120.86554 126.32294 131.90074 143.05632 154.2119 159.68938 170.84496 177.52628 188.68185 198.79411" y="0">(user stories / features)</tspan></text></g><g clip-path="url(#p)"><text fill="#fff" font-family="Arial" font-size="24.96" transform="matrix(1 0 0 -1 353.09 106.34)"><tspan x="0" y="0">•</tspan></text></g><g clip-path="url(#q)"><text fill="#fff" font-family="Arial" font-size="20.04" transform="matrix(1 0 0 -1 369.29 106.34)"><tspan x="0 13.36668 23.386681 28.9578 33.406681 50.099998 61.242241 66.713158 77.8554 83.266197 93.286201 104.48856 111.16188 115.61076 126.753 132.32413 137.61469 148.75693 159.89915 169.99931 180.01932 184.4682 195.65051 206.79276 212.08331 216.5322 227.67444" y="0">Estimate sprint backlog in </tspan></text></g><g clip-path="url(#r)"><text fill="#fff" font-family="Arial" font-size="20.04" transform="matrix(1 0 0 -1 369.29 81.384)"><tspan x="0 11.14224 22.284479 33.42672 40.180199" y="0">hours</tspan></text></g><path d="m726.24 373.46-50.94.1v3l50.94-.1zm-1.49 6 8.99-4.52-9.01-4.48z"/><path d="m734.7 394.36c0 11.94 9.68 21.62 21.62 21.62h76.4c11.94 0 21.62-9.68 21.62-21.62v-38.72c0-11.94-9.68-21.62-21.62-21.62h-76.4c-11.94 0-21.62 9.68-21.62 21.62z" fill="#aa3340" fill-opacity=".847059" stroke="#921100" stroke-miterlimit="10" stroke-width="2"/><g clip-path="url(#s)"><text fill="#ebf3ff" font-family="Arial" font-size="18.024" transform="matrix(1 0 0 -1 743.74 381.26)"><tspan x="0 12.022008 21.953232 27.955223 31.956553 41.869751" y="0">Sprint</tspan></text></g><g clip-path="url(#t)"><text fill="#ebf3ff" font-family="Arial" font-size="18" transform="matrix(1 0 0 -1 743.74 347.28)"><tspan x="0 9.96 19.92 29.879999" y="0">goal</tspan></text></g><path d="m319.56 453.74-38.82.1v3l38.82-.1zm-1.49 6 8.99-4.52-9.01-4.48z"/><path d="m734.7 212.56c0 11.94 9.68 21.62 21.62 21.62h76.4c11.94 0 21.62-9.68 21.62-21.62v-38.72c0-11.94-9.68-21.62-21.62-21.62h-76.4c-11.94 0-21.62 9.68-21.62 21.62z" fill="#aa3340" fill-opacity=".847059" stroke="#921100" stroke-miterlimit="10" stroke-width="2"/><g clip-path="url(#u)"><text fill="#ebf3ff" font-family="Arial" font-size="18" transform="matrix(1 0 0 -1 743.74 199.42)"><tspan x="0 12.006 21.959999 27.954 31.950001 41.886002" y="0">Sprint</tspan></text></g><g clip-path="url(#v)"><text fill="#ebf3ff" font-family="Arial" font-size="18.024" transform="matrix(1 0 0 -1 743.74 165.46)"><tspan x="0 9.967272 19.934544 28.946545 37.958546 41.887775 51.855049" y="0">backlog</tspan></text></g><path d="m726.24 191.66-50.94.1v3l50.94-.1zm-1.49 6 8.99-4.52-9.01-4.48z"/><path d="m173.1 298.02c0 11.93 9.67 21.6 21.6 21.6h64.8c11.93 0 21.6-9.67 21.6-21.6v-28.8c0-11.93-9.67-21.6-21.6-21.6h-64.8c-11.93 0-21.6 9.67-21.6 21.6z" fill="#884f9f" fill-opacity=".847059" stroke="#792292" stroke-miterlimit="10" stroke-width="2"/><g clip-path="url(#w)"><text fill="#ebf3ff" font-family="Arial" font-size="18" transform="matrix(1 0 0 -1 182.06 289.2)"><tspan x="0 12.006 21.959999 30.959999 34.956001 44.874001 54.882 63.882 72.882004" y="0">Business </tspan></text></g><g clip-path="url(#x)"><text fill="#ebf3ff" font-family="Arial" font-size="18" transform="matrix(1 0 0 -1 182.06 261.22)"><tspan x="0 9 19.007999 28.926001 38.933998 42.84 47.844002 51.84 61.848 71.765999" y="0">conditions</tspan></text></g><path d="m173.1 469.02c0 11.93 9.67 21.6 21.6 21.6h64.8c11.93 0 21.6-9.67 21.6-21.6v-28.8c0-11.93-9.67-21.6-21.6-21.6h-64.8c-11.93 0-21.6 9.67-21.6 21.6z" fill="#884f9f" fill-opacity=".847059" stroke="#792292" stroke-miterlimit="10" stroke-width="2"/><g clip-path="url(#y)"><text fill="#ebf3ff" font-family="Arial" font-size="18" transform="matrix(1 0 0 -1 182.06 460.22)"><tspan x="0 9.126 19.134001 29.052 44.046001" y="0">Team </tspan></text></g><g clip-path="url(#z)"><text fill="#ebf3ff" font-family="Arial" font-size="18" transform="matrix(1 0 0 -1 182.06 432.26)"><tspan x="0 9 19.007999 28.926001 38.933998 47.933998 51.84 56.844002" y="0">capacity</tspan></text></g><path d="m173.1 383.58c0 11.93 9.67 21.6 21.6 21.6h64.8c11.93 0 21.6-9.67 21.6-21.6v-28.8c0-11.93-9.67-21.6-21.6-21.6h-64.8c-11.93 0-21.6 9.67-21.6 21.6z" fill="#884f9f" fill-opacity=".847059" stroke="#792292" stroke-miterlimit="10" stroke-width="2"/><g clip-path="url(#A)"><text fill="#ebf3ff" font-family="Arial" font-size="18" transform="matrix(1 0 0 -1 182.06 374.71)"><tspan x="0 12.006 18 28.007999 37.925999 47.933998 56.933998 61.938" y="0">Product </tspan></text></g><g clip-path="url(#B)"><text fill="#ebf3ff" font-family="Arial" font-size="18" transform="matrix(1 0 0 -1 182.06 346.75)"><tspan x="0 10.008 19.926001 28.926001 37.925999 41.922001 51.84" y="0">backlog</tspan></text></g><path d="m173.1 127.02c0 11.93 9.67 21.6 21.6 21.6h64.8c11.93 0 21.6-9.67 21.6-21.6v-28.8c0-11.929-9.67-21.6-21.6-21.6h-64.8c-11.93 0-21.6 9.671-21.6 21.6z" fill="#884f9f" fill-opacity=".847059" stroke="#792292" stroke-miterlimit="10" stroke-width="2"/><g clip-path="url(#C)"><text fill="#ebf3ff" font-family="Arial" font-size="15.96" transform="matrix(1 0 0 -1 182.06 103.92)"><tspan x="0 7.91616 16.789921 24.817801 33.691559 42.565319 51.439079 55.04604 63.9198 72.793556" y="0">Technology</tspan></text></g><path d="m173.1 212.58c0 11.93 9.67 21.6 21.6 21.6h64.8c11.93 0 21.6-9.67 21.6-21.6v-28.8c0-11.93-9.67-21.6-21.6-21.6h-64.8c-11.93 0-21.6 9.67-21.6 21.6z" fill="#884f9f" fill-opacity=".847059" stroke="#792292" stroke-miterlimit="10" stroke-width="2"/><g clip-path="url(#D)"><text fill="#ebf3ff" font-family="Arial" font-size="18" transform="matrix(1 0 0 -1 182.06 203.66)"><tspan x="0 12.996 22.914 28.908001 34.902 44.91 54.827999 59.832001" y="0">Current </tspan></text></g><g clip-path="url(#E)"><text fill="#ebf3ff" font-family="Arial" font-size="18" transform="matrix(1 0 0 -1 182.06 175.7)"><tspan x="0 10.008 16.002001 25.92 35.928001 45.846001 54.846001" y="0">product</tspan></text></g><path d="m319.56 368.18-38.82.1v3l38.82-.1zm-1.49 6 8.99-4.52-9.01-4.48z"/><path d="m319.56 282.74-38.82.1v3l38.82-.1zm-1.49 6 8.99-4.52-9.01-4.48z"/><path d="m319.56 197.18-38.82.1v3l38.82-.1zm-1.49 6 8.99-4.52-9.01-4.48z"/><path d="m319.56 111.74-38.82.1v3l38.82-.1zm-1.49 6 8.99-4.52-9.01-4.48z"/></g></svg>